<?xml version="1.0" encoding="utf-8"?>
<!-- Generator: Adobe Illustrator 23.1.1, SVG Export Plug-In . SVG Version: 6.00 Build 0)  -->
<svg version="1.1" id="Layer_1" xmlns="http://www.w3.org/2000/svg" xmlns:xlink="http://www.w3.org/1999/xlink" x="0px" y="0px"
	 viewBox="0 0 304.5 108" style="enable-background:new 0 0 304.5 108;" xml:space="preserve">
<style type="text/css">
	.st0{fill:#333333;}
</style>
<path class="st0" d="M100.1,99.5h-31l9.1-51.6c1.9-10.7-1.2-16.5-10.9-16.5S48.1,41.7,46,54.1l-8,45.4H7l16-91h31l-2,11.1
	c7.6-7.8,18.2-13.2,30.2-13.2c24.4,0,31.3,16.7,27,41.5L100.1,99.5z"/>
<path class="st0" d="M201.7,57.8h-70.6c-1.9,10.5,3.6,21.7,15.8,21.7c10.9,0,19-7.2,20.4-13.8h31.6c-9.6,23.9-31.1,35.9-55.3,35.9
	c-31.4,0-49.8-18.6-44.7-47.5c5-28.5,30.9-47.7,61.5-47.7c27.7,0,47.7,16.5,42.5,45.6C202.6,53.9,202.1,56,201.7,57.8z M174.8,43.2
	c0,0,1.5-16.9-17.2-16.9c-19.4,0-23.4,16.9-23.4,16.9H174.8z"/>
<path class="st0" d="M295.2,54.1c-5.1,29.1-31.2,47.3-60.1,47.3c-29.1,0-48.8-18.2-43.7-47.3c5-28.5,31.9-47.5,60.4-47.5
	C280.1,6.6,300.3,25.6,295.2,54.1z M264.4,54.3c2-11.4-0.8-23.5-16.9-23.5c-16.3,0-23.4,12.2-25.4,23.5c-2,11.6,0.4,23.7,17.1,23.7
	C255.7,78,262.4,65.9,264.4,54.3z"/>
</svg>
